<svg xmlns="http://www.w3.org/2000/svg" width="128" height="128" viewBox="0 0 256 256">
  <rect x="0" y="0" width="100%" height="100%" fill="#000" />
  <path fill="#444" d="M22,72 v-16 a8,8 0,0,1 8,-8 h196 a8,8 0,0,1 8,8 v16 h-6v104 h-200v-104"/>
  <rect fill="#666" stroke="#333" stroke-width="2" x="46" y="76" width="164" height="84" rx="4" />
  <path fill="#333" stroke-width="2" d="M108 166 l20 8 20-8z"/>
  <path fill="#222" stroke-width="2"
    d="M50,66 c20,-4 48,-10 78,-10 c30,0 58,6 78,10
       v1 c-20,-4 -48,-7 -78,-7 c-30,0 -58,3 -78,7z" />
</svg>
