<svg xmlns="http://www.w3.org/2000/svg" width="128" height="128" viewBox="0 0 256 256">
  <rect x="0" y="0" width="100%" height="100%" fill="#000" />
  <path fill="#444" d="M22,72 v-16 a8,8 0,0,1 8,-8 h196 a8,8 0,0,1 8,8 v16 h-6v104 h-200v-104"/>
  <rect fill="#666" stroke="#333" stroke-width="2" x="46" y="76" width="164" height="84" rx="4" />
  <path fill="#333" stroke-width="2" d="M108 166 l20 8 20-8z"/>
  <path fill="#222" stroke-width="2"
    d="M50,66 c20,-4 48,-10 78,-10 c30,0 58,6 78,10
       v1 c-20,-4 -48,-7 -78,-7 c-30,0 -58,3 -78,7z" />

<path fill="#1F00CC" d="
M181,81
C186.1,81,189.2,83.2,192.2,86.8
C193.29999999999998,85.8,194.39999999999998,84.89999999999999,195.7,84.1
C198.79999999999998,82.1,202.29999999999998,81.1,205.79999999999998,81.1
L252.79999999999998,81.1
L249.7,86

L238.40000000000003,121.3
C236.80000000000004,122.89999999999999,235.10000000000002,123.1,233.10000000000002,123
L232.60000000000002,126.2
H213.70000000000002
L214.10000000000002,123.5
C213.90000000000003,123.6,213.70000000000002,123.8,213.50000000000003,123.9
C209.10000000000002,126.60000000000001,204.10000000000002,127.5,199.40000000000003,126.4
C195.80000000000004,125.60000000000001,192.60000000000002,123.60000000000001,190.20000000000005,121
C187.00000000000006,124.1,182.70000000000005,126.2,178.60000000000005,126.2
L85.70000000000005,126.3
L84.20000000000005,117.8
L80.40000000000005,126.3
H64.90000000000005
C60.00000000000005,127.1,55.10000000000005,126.39999999999999,50.700000000000045,124.2
C44.700000000000045,121,40.700000000000045,115.4,40.100000000000044,109.10000000000001
C39.00000000000004,98.60000000000001,43.100000000000044,90.20000000000002,51.700000000000045,84.9
C60.00000000000004,79.80000000000001,68.80000000000004,78.7,77.90000000000005,81.9
L79.60000000000005,82.5
L80.20000000000005,81.1
H97.60000000000005
L98.90000000000005,88.89999999999999
L101.50000000000004,80.99999999999999
L181.00000000000006,80.99999999999999z"/>

<path fill="#FFF" d="
M123.7,86.7l-7.8,18.3l-3.3,-18.3h-6.8l-8.8,27l-4.5,-27h-8.4l-12.8,29l1.9,-12.1h-12.7l-1,6.2h5.3l-0.6,3.3c-3,1.3,-8.2,0.9,-10.4,-3.1c-1.4,-2.5,-2.7,-8.1,3.2,-13.2c4.8,-4.2,13.1,-4.9,17.9,-2.7c0,0,0.6,-3.5,1.1,-6.8c-9.2,-3.2,-16.4,-0.5,-21.2,2.4c-6.5,4,-9.6,10.2,-8.8,18.6c1,9.7,13.5,15.8,24.2,9.7c0.1,-0.1,0.2,-0.1,0.2,-0.1l-1,2.3h7.2l4.5,-10h7.9l1.7,10h11.6l5.9,-18.6l3.8,18.6h4.6l8.9,-20.6l0.9,20.6h6.8l-1.3,-33.5zm-39.9,16.9l2.9,-6.5l1.3,6.5h-4.2z
M133.9,120.1h19.1l1.1,-7.2h-12l1,-5.9h10.4l1.1,-7.2h-10.5l0.9,-5.9h12l1.1,-7.2h-18.9z
M178.1,100.1h-4.8l1.1,-6.2h4.4c4.9,0,4,6.2,-0.7,6.2m-0.8,13.5h-6l1.1,-6.6h5.7c5.4,-0.1,5.3,6.6,-0.8,6.6m4,-26.7c-3.7,-0.1,-12.8,0,-12.8,0h0.1l-5.3,33.1h15.4c6.3,0,15.6,-9.3,7.2,-17c8.6,-9,0,-16,-4.6,-16.1z
M208.5,87c-7.6,-1.7,-15.5,4.3,-17.6,13.5c-2.1,9.2,2.3,18.1,9.9,19.9c7.6,1.8,15.5,-4.3,17.6,-13.5c2.1,-9.2,-2.4,-18.1,-9.9,-19.9zm2.6,19.6c-1.8,5.5,-6.3,8.7,-9.9,7.1c-3.6,-1.6,-5,-7.4,-3.2,-13c1.8,-5.5,6.3,-8.7,9.9,-7.1c3.7,1.7,5.1,7.5,3.2,13z
M227.1,97.6l-4.2,-10.9h-7.9l8.1,17.6l-2.5,15.8h6.9l2.1,-14l12.3,-19.4h-8l-6.8,10.9z
M233.3 116.9v-1.3h1.1c.5 0 .9.1.9.6 0 .8-.8.7-1.3.7h-.7m1.3.4c.7 0 1.2-.3 1.2-1.1 0-.3-.2-.7-.4-.8-.3-.2-.6-.2-.9-.2h-1.7v3.9h.5v-1.7h.8l1.1 1.7h.6l-1.2-1.8m-.4 3.3c1.9 0 3.5-1.5 3.5-3.5 0-1.9-1.5-3.4-3.5-3.4a3.46 3.46 0 1 0 0 6.9m0-.6c-1.6 0-2.9-1.2-2.9-2.9a2.9 2.9 0 0 1 5.8 0c-.1 1.7-1.3 2.9-2.9 2.9z
"/>

<path fill="#1F00CC" d="
M54,126l59,-0.1l5.4,9.3l4.8,-9.2l39.2,0l9.7,7.6v-7.6h73.8v35.3h-68.1l-9.9,-7.7v7.7l-55.2,0v0l-3.7,-6.1c-3,3.4,-8.4,6.1,-17.3,6.1l-49,0"/>
<path fill="#fff" d="M90,150h-6.2v-12.6h8.8c4.7,0,7,1.9,7,6c0,5,-2.5,6.6,-9.6,6.6m43.3,-17.9h-7.2l-0.2,0.4l-8.1,14.9l-8.7,-14.9l-0.2,-0.3h-7.7l0.6,1l1.5,2.4c-2.4,-2.3,-6,-3.5,-10.7,-3.5h-15.5v19.4l-11.5,-19l-0.2,-0.3h-5.9l-0.2,0.3l-13.1,22l-0.6,1h16.5v-5.2h-6.7l6.7,-12.1l9.5,16.9l0.2,0.3h19.3c10.1,0,15.3,-4,15.3,-11.8c0,-1.4,-0.2,-2.6,-0.5,-3.7l9.2,15.2l0.2,0.3h4.5l0.2,-0.3l12.7,-22l0.6,-1m44.7,0h-0.7v13.9l-17.5,-13.7l-0.2,-0.2h-4.6v19.4l-11.5,-19l-0.2,-0.4h-5.9l-0.2,0.4l-13.1,21.9l-0.6,1.1h16.6v-5.2h-6.7l6.7,-12.1l9.5,16.9l0.2,0.4h11.4v-14.1l17.5,13.9l0.2,0.2h4.6v-23.4h-5.5m27.7,0h-13.7c-4.8,0,-6.4,1.5,-6.4,5.9v11.6c0,4.4,1.6,5.9,6.4,5.9h13.7c4.8,0,6.4,-1.5,6.4,-5.9v-3.3h-6.8v3.6h-13.1v-12.3h13.1v3.2h6.8v-2.8c0,-4.5,-1.6,-5.9,-6.4,-5.9m33.1,17.9h-17.8v-4.1h10.7v-5.1h-10.7v-3.4h18.2v-5.3h-24.9v23.4h25.2v-5.5h-0.7z"/>
</svg>
