<svg xmlns="http://www.w3.org/2000/svg" xmlns:xlink="http://www.w3.org/1999/xlink" width="128px" height="128px" viewBox="0 0 256 256">
  <rect x="0" y="0" width="100%" height="100%" fill="#000" />
  <path id="disc" stroke="#fff" stroke-width="4px" fill="#32396d" d="M48,128 a80,80 0 1,0 160,0 a80,80 0 1,0 -160,0
    M116,128 a12,12 0 1, 1 24,0 a12,12 0 1, 1 -24,0z" />
  <clipPath id="clip">
    <use xlink:href="#disc" />
  </clipPath>
  <g clip-path="url(#clip)">
  <path fill="#F0EFF4" d="
    M128,128 l-24.25,-14 24.25,-14 24.25,14z
    m0,-64 l-55.43,32 l17.32,10 38.11,-22 24.25,14 17.32,-10z" />

  <path fill="#969FC9" d="
    M128,128 l-24.25,-14 v28 l24.25,14z
    m-38.11,-22 l-17.32,-10 v64 l55.43,32 v-20 l-38.11,-22z" />

  <path fill="#606A8F" d="
    M128,128
    m38.11,22 l-38.11,22 v20 l55.43,-32 v-64 l-55.43,32 v28 l24.25,-14 v-8 l13.86,-8z" />
  </g>
  <path fill="#888" d="M56,28h-2.61v8.48l-4.46,-8.48h-3.56v13.28h2.62v-10.36l5.44,10.38h2.57zm17.75,13.28v-13.28h-3v13.28h3zm17.36,0v-10.37l5.4,10.38h2.61v-13.31h-2.64v8.5l-4.46,-8.5h-3.56v13.3h2.66zm19.84,-13.28v2.1h4.42v11.18h2.83v-11.2h4.46v-2.1h-11.7zm32.84,2.1v-2.1h-6c-0.77,0,-1.5,0.17,-2.15,0.47s-1.15,0.73,-1.54,1.24a3.07,3.07,0,0,0,-0.6,1.72v6.47c0.04,0.6,0.21,1.16,0.56,1.67c0.39,0.51,0.9,0.9,1.5,1.24c0.64,0.3,1.33,0.47,2.14,0.47h6.09v-2.1h-5.83c-0.47,0,-0.9,-0.12,-1.29,-0.38c-0.34,-0.26,-0.55,-0.56,-0.55,-0.99v-2.4h7.67v-2.13h-7.67v-1.76c0,-0.43,0.21,-0.77,0.55,-1.03a2.27,2.27,0,0,1,1.29,-0.38h5.83zm15.52,11.18v-10.37l5.4,10.38h2.61v-13.31h-2.66v8.5l-4.45,-8.5h-3.52v13.3h2.62zm20.91,-13.3v13.34h6.43a5.83,5.83,0,0,0,2.2,-0.47c0.68,-0.35,1.2,-0.73,1.58,-1.25a3.2,3.2,0,0,0,0.6,-1.75v-6.43a3.07,3.07,0,0,0,-0.6,-1.72a3.87,3.87,0,0,0,-1.59,-1.24a5.12,5.12,0,0,0,-2.18,-0.47h-6.43zm7.6,2.5c0.38,0.25,0.55,0.6,0.6,1.02v6.3c-0.05,0.43,-0.22,0.77,-0.6,1.03c-0.35,0.3,-0.78,0.43,-1.25,0.43h-3.73v-9.21h3.73c0.47,0,0.9,0.12,1.24,0.42zm24.08,-2.15a5.84,5.84,0,0,0,-2.18,-0.47h-2.36c-0.82,0.04,-1.55,0.17,-2.19,0.47a4.3,4.3,0,0,0,-1.58,1.24a2.9,2.9,0,0,0,-0.6,1.76v6.65c0,0.64,0.21,1.2,0.6,1.71c0.38,0.51,0.9,0.94,1.58,1.24c0.64,0.3,1.37,0.47,2.19,0.47h2.36c0.81,0,1.54,-0.17,2.18,-0.47c0.69,-0.3,1.2,-0.73,1.59,-1.24s0.6,-1.11,0.6,-1.71v-6.65a3.2,3.2,0,0,0,-0.6,-1.76c-0.39,-0.51,-0.9,-0.9,-1.59,-1.24zm-1.03,2.02c0.39,0.3,0.6,0.64,0.6,1.02v6.52c0,0.39,-0.21,0.73,-0.6,1.03a2.06,2.06,0,0,1,-1.24,0.43h-2.19c-0.47,0,-0.9,-0.17,-1.28,-0.43c-0.35,-0.3,-0.56,-0.64,-0.56,-1.03v-6.51c0,-0.38,0.21,-0.72,0.56,-1.02c0.38,-0.26,0.81,-0.4,1.28,-0.43h2.2c0.46,0.04,0.9,0.17,1.23,0.42z"/>
  <path fill="#888" d="M62,220v-3.78h-16.31c-1.16,0,-2.1,0.13,-2.79,0.38a2.7,2.7,0,0,0,-1.46,1.38c-0.3,0.64,-0.43,1.5,-0.43,2.57v8.7c0,1.07,0.13,1.93,0.43,2.57c0.3,0.6,0.77,1.07,1.46,1.33c0.69,0.3,1.63,0.43,2.79,0.39h11.87c1.71,0.04,2.92,-0.26,3.64,-0.9c0.69,-0.7,1.03,-1.8,0.99,-3.4v-6.12h-11.24v3.64h6.52v2.87h-11.62v-9.64h16.15zm42.02,-3.77l-7.38,12.26l-7.33,-12.26h-4.41v14.27l-8.62,-14.27h-4.33l-10.33,17.32h12.95v-3.9h-5.79l5.36,-8.62l7.24,12.52h7.98v-9.26l5.53,9.25h3.55l5.58,-9.26v9.26h4.45v-17.31h-4.45zm24.99,3.64v-3.64h-18.41v17.31h18.57v-3.9h-13.71v-3.25h7.89v-3.65h-7.89v-2.87h13.55zm23.14,-1.89a2.84,2.84,0,0,0,-1.45,-1.37a8.2,8.2,0,0,0,-2.79,-0.38h-10.59c-1.2,0,-2.1,0.12,-2.78,0.38c-0.69,0.3,-1.2,0.73,-1.46,1.37c-0.3,0.65,-0.47,1.5,-0.43,2.58v8.7a5.57,5.57,0,0,0,0.43,2.57c0.26,0.6,0.77,1.07,1.46,1.33c0.68,0.3,1.58,0.43,2.78,0.38h10.59a6.5,6.5,0,0,0,2.79,-0.38a2.78,2.78,0,0,0,1.45,-1.33a7,7,0,0,0,0.43,-2.57v-3.18l-4.84,0.05v3.51h-10.29v-9.6h10.29v3.09h4.84v-2.57c0,-1.12,-0.17,-1.98,-0.43,-2.58zm22.55,-1.75h-4.84v13.41h-10.5v-13.41h-4.86v13.03a5.57,5.57,0,0,0,0.43,2.57c0.26,0.6,0.77,1.07,1.46,1.33c0.68,0.3,1.58,0.43,2.78,0.39h10.8a6.6,6.6,0,0,0,2.83,-0.4a2.62,2.62,0,0,0,1.46,-1.32c0.3,-0.64,0.43,-1.5,0.43,-2.57v-13.04zm21.48,3.6c0.04,-1.2,-0.3,-2.15,-1.03,-2.7c-0.69,-0.6,-1.76,-0.9,-3.22,-0.9h-15.13v17.36h14.06c3.69,-0.04,5.49,-1.25,5.49,-3.69v-2.1c0,-1.46,-0.65,-2.53,-1.97,-3.13a2.9,2.9,0,0,0,1.8,-2.83v-2.01zm-4.68,0.08c0.18,0.17,0.26,0.35,0.22,0.6v1.59a0.56,0.56,0,0,1,-0.22,0.56l-1.2,0.21h-8.66v-3.13h8.66c0.65,0,1.07,0.09,1.2,0.17zm-9.86,9.86v-3.38h8.7c0.65,0,1.03,0.08,1.25,0.21c0.17,0.17,0.26,0.43,0.26,0.86v1.24c0,0.39,-0.09,0.69,-0.26,0.81c-0.22,0.17,-0.6,0.26,-1.24,0.26h-8.7zm34.94,-9.9v-3.64h-18.39v17.31h18.56v-3.9h-13.71v-3.25h7.88v-3.65h-7.88v-2.87h13.54z"/>
</svg>
