<svg xmlns="http://www.w3.org/2000/svg" xmlns:xlink="http://www.w3.org/1999/xlink" width="128px" height="128px" viewBox="0 0 256 256">
  <rect x="0" y="0" width="100%" height="100%" fill="#000" />
  <path id="disc" stroke="#fff" fill="#32396d" d="M48,128 a80,80 0 1,0 160,0 a80,80 0 1,0 -160,0
    M116,128 a12,12 0 1, 1 24,0 a12,12 0 1, 1 -24,0z" />
  <clipPath id="clip">
    <use xlink:href="#disc" />
  </clipPath>
  <g clip-path="url(#clip)">
  <path stroke="#0f0" d="
    M128,128 v-24 l-20.78,12z
    m0,-64 l-55.43,32z" />
  <path stroke="#00f" d="
    M128,128 l-20.78,-12 v24z
    m-55.43,-32 v64z" />
  <path stroke="#f00" d="
    M128,128 l-20.78,12 l20.78,12z
    m-55.43,32 l55.43,32z" />

  <path stroke="#0f0" d="
    M128,128 v24 l20.78,-12z
    m0,64 l55.43,-32z" />
  <path stroke="#00f" d="
    M128,128 l20.78,-12 v24z
    m55.43,32 v-64z" />
  <path stroke="#f00" d="
    M128,128 l20.78,-12 l-20.78,-12z
    m55.43,-32 l-55.43,-32z" />
  </g>
</svg>
