<svg xmlns="http://www.w3.org/2000/svg" viewBox="0 0 256 256">
  <rect x="0" y="0" width="100%" height="100%" />
  <path fill="#333" stroke="#333" stroke-width="4" stroke-linejoin="round" d="
  M16 200 v-136
  s0-10 15-10
  h196
  s16 0 15 10
  v136z
  "/>
  <path fill="#000" d="M198 142 l12.457-7.215v-15.261l-11.937-6.903h-48.791l-8.772-12.561h-37.526l-8.824 12.561h-47.99l-11.886 6.851v15.313l12.509 7.215z" />
  <path d="M37.5 134 l10.484 6.073h149.588l10.485-6.073v-13.39l-9.912-5.762h-49.258l-8.875-12.561h-35.348l-8.772 12.561h-48.53l-9.862 5.71z" fill="#fff"/>
  <path d="
  M113 103.6h-4.779a3.646 3.646 0 0 0-3.646 3.645c0 2.014 1.633 3.607 3.646 3.59h1.456v.492h-5.07v1.427h4.905a1.67 1.67 0 0 0 1.67-1.669 1.66 1.66 0 0 0-1.67-1.657l-1.271-.005a2.166 2.166 0 0 1 0-4.332h4.762l-.003-1.491z
  M113 107h-4.967v.489l1.49.003c2.014 0 3.646 1.593 3.646 3.606 0 2.014-1.632 3.611-3.646 3.611l-4.916-.01v-1.451h4.905a2.165 2.165 0 0 0 2.166-2.165c0-1.196-.97-2.153-2.166-2.153l-1.271-.005a1.67 1.67 0 0 1 0-3.34h4.762l-.003 1.415z

  M116 111.6a1.17 1.17 0 0 0 1.179 1.172h4.815v-1.466h-4.522v-.411h3.563v-1.459h-5.028l-.007 2.164z
  M116 106.8c0-.606.522-1.169 1.172-1.166h4.815v1.459h-4.522v.411h3.563v1.479h-5.035l.007-2.183z
  M117 103.6a2.96 2.96 0 0 0-2.96 2.959v5.18a2.96 2.96 0 0 0 2.96 2.959h4.988v-1.459h-4.864c-.858 0-1.619-.813-1.619-1.671v-4.84c0-.858.761-1.651 1.619-1.651h4.864v-1.479h-4.988v.002z

  M126 114.7a2.96 2.96 0 0 1-2.96-2.959v-5.18a2.96 2.96 0 0 1 2.96-2.959h5.195v1.479h-5.07c-.859 0-1.62.793-1.62 1.651v4.84c0 .858.76 1.671 1.62 1.671h3.592v-4.351h-2.793v-1.453h4.277v6.92l3.047-9.428a2.4 2.4 0 0 1 4.547.062l3.164 9.708h-5.996v-1.459h3.895l-2.641-8.097c-.154-.445-.43-.498-.705-.498-.287 0-.553.118-.703.525l-3.1 9.529h-6.709v-.001z
  M126.4 111.3v-4.287h4.756v-1.459h-5.023c-.65-.003-1.172.56-1.172 1.166l-.006 4.834c0 .658.535 1.179 1.178 1.172h3.064l-.008-3.362h-2.305v1.446h.852v.489h-1.336v.001z
  M136.7 105.3c-.059-.139-.08-.172-.24-.172-.16 0-.199.083-.26.222l-3.029 9.331 1.594.002 1.713-5.173.564 1.747h-1.131v1.472h3.219l-2.43-7.429z

  M54 123.3v8.305h8.512v-2.283h-6.955l5.554-3.737h8.253v6.229l-5.243 3.529h-16.972v-11.937l5.683-3.842h18.582l-5.528 3.736z
  M78 131.6v-2.283h6.566l5.579-3.737h-12.145v-2.285h9.887l5.554-3.736h-16.324l-5.968 3.66v12.119h16.609l5.606-3.738z
  M110 130l-8.512-5.295v10.537h-6.852v-15.779h6.955l8.409 4.619v-4.619h6.852v15.779h-6.852z
  M126.4 131.6v-2.283h6.564l5.58-3.737h-12.144v-2.285h9.886l5.555-3.736h-16.324l-5.969 3.66v12.119h16.61l5.605-3.738z
  M148 125.5h15.26v6.073l-5.449 3.685h-16.87l5.58-3.738h9.861v-2.283h-15.26v-5.944l5.633-3.814h16.817l-5.555 3.736h-10.043z
  M166 119.5h6.851v15.779h-6.851z
  M182 125.5h15.26v6.073l-5.451 3.685h-16.842l5.58-3.738h9.862v-2.283h-15.26v-5.944l5.631-3.814h16.818l-5.555 3.736h-10.043z
  " />
</svg>
