<svg xmlns="http://www.w3.org/2000/svg" xmlns:xlink="http://www.w3.org/1999/xlink" height="128px" width="128px" version="1.1" viewBox="0 0 256 256">
  <rect x="0" y="0" width="100%" height="100%" fill="#000" />
  <path fill="#666" stroke="#666" stroke-width="8px" stroke-linejoin="round"
    d="M22,14 l212,0
       l0 192 l-16 0 l0 36 l-180 0 l0 -36 l-16 0z"
  />
  <path fill="#000000"
    d="M30,9 l0,7 l14,0 l0,-7z
    M212,9 l0,7 l14,0 l0,-7z"/>
  <path stroke="#444" stroke-width="2" fill="#555"
    d="M55,10 l0,31 l42,0 l0,-31
       M118 200 l20 0 l-10 16z" />

<path d="M54 129c-15.2034-.005-25.3621-10.313-25.3621-22.8112 0-12.4982 10.182-22.9245 25.339-22.8925h147.92c15.157-.032 25.339 10.3943 25.339 22.8925 0 12.4982-10.1588 22.8062-25.3622 22.8111z" stroke="#fff" stroke-width="8" fill="#fff" />
<path d="M54 129c-15.2033-.005-25.3621-10.313-25.3621-22.8112 0-12.4982 10.182-22.9245 25.339-22.8925h147.92c15.157-.032 25.339 10.3943 25.339 22.8925 0 12.4982-10.1588 22.8062-25.3622 22.8111z
M54 89c-12.036.0222-19.424 7.7187-19.424 17.2408 0 9.5197 7.3416 17.2803 19.424 17.2384h148.093c12.0823.0394 19.4265-7.7187 19.4265-17.2384 0-9.5196-7.388-17.2161-19.424-17.2383z" fill="#E60012" />

<path fill="#E60012"
d="M56 118h-7.084218 l0-22.88046 h7.12902 l9.86168 15.9558-0-15.9558 h7.074 v22.88046 h-7.06352 l-9.91408-15.9558
M84 100h-6.89584v-4.6767h6.89584z
M84 118h-6.88012 v-15.21696l6.88012 0z
M100 102c2.5688-.0732 7.7795 1.6088 7.743 7.6226-.0053 1.0673-.0027 8.2661-.0027 8.2661 h-6.841v-9.9768c0-1.3237-1.2661-2.7964-3.139-2.7964-1.8704 0-3.262 1.4727-3.262 2.7964 0 .6487.0078 9.9768.0078 9.9768h-6.8195l-.0026-15.1902 6.8247-.0052s-.0078 1.2216 0 1.5983c1.3132-1.253 3.2044-2.2261 5.475-2.2915z
M118.4 118 h-6.8906 l0-15.18552 h-3.74136 v-2.25844 l3.74398-0-0-3.08112h6.88536v3.0785h3.72564v2.26368h-3.72564z
M128.6 108c-.0105-1.3315.0183-2.2209.4551-2.9795.5363-.9364 1.5225-1.3811 2.417-1.3864h-.003c.8947.0052 1.8809.45 2.4171 1.3864.4369.7612.4552 1.6506.4447 2.9821zm5.7078 4.5803s.005.068.005.9208c0 2.778-1.8285 3.3954-2.8435 3.3954-1.015 0-2.8748-.6174-2.8748-3.3954 0-.8318.005-3.1364.005-3.1364s12.9406.0052 12.9406-.0026c0-4.7111-4.549-8.614-10.1364-8.614-5.5875 0-10.1155 3.8192-10.1155 8.5303s4.528 8.5277 10.1155 8.5277c4.6353 0 8.5512-2.6447 9.7466-6.231z
M156 102c2.5688-.0732 7.7795 1.6088 7.743 7.6226-.005 1.0673-.003 8.2661-.003 8.2661h-6.8248v-9.9768c0-1.3237-1.2661-2.7964-3.139-2.7964-1.8704 0-3.262 1.4727-3.262 2.7964 0 .6487.008 9.9768.008 9.9768h-6.8195l.005-15.1902 6.8169-.0052s-.008 1.2216 0 1.5983c1.3131-1.253 3.207-2.2261 5.475-2.2915z
M178.5 95h6.7803v22.8442h-6.7908s-.003-.7376-.003-.8789c-2.6289 1.6506-5.5953 1.648-7.905.5703-.62-.2878-4.6981-2.2444-4.6981-7.531 0-4.0102 3.7825-8.389 8.7343-7.9548 1.6297.1438 2.7885.7376 3.8872 1.355-.005-3.5157-.005-8.4048-.005-8.4048zm.0497 15.172v-2.7153c0-2.349-1.6218-2.948-2.689-2.948-1.0935 0-2.6944.599-2.6944 2.948 0 .7795.003 2.7074.003 2.7074s-.003 1.8939-.003 2.7022c0 2.3464 1.6009 2.9611 2.6917 2.9611 1.0699 0 2.6943-.6147 2.6943-2.9611 0-.9757-.003-2.6943-.003-2.6943z
M200 110s-.003 2.2967-.003 3.2175c0 2.4223-1.4309 3.4215-2.8068 3.4215-1.3786 0-2.8147-.9992-2.8147-3.4215 0-.9208.003-3.275.003-3.275s.005-2.247.005-3.1679c0-2.4118 1.4387-3.4032 2.8068-3.4032 1.3707 0 2.8068.9914 2.8068 3.4032 0 .9208-.003 2.6237.005 3.2332zm-2.7597-8.512c-5.5456 0-10.0397 3.8192-10.0397 8.5303s4.4967 8.5303 10.0397 8.5303c5.5456 0 10.0396-3.8192 10.0396-8.5303s-4.494-8.5303-10.0396-8.5303z
M209 96c1.1117 0 1.6636.3767 1.6636 1.1222 0 .5127-.3191.8999-.8501 1.0333l.871 1.7395h-1.0541l-.7455-1.5956h-.463v1.5956h-.9496v-3.895zm-.0863-1.5224c-1.941 0-3.5157 1.5748-3.5157 3.5157 0 1.941 1.5747 3.5157 3.5157 3.5157 1.941 0 3.5157-1.5747 3.5157-3.5157 0-1.941-1.5748-3.5157-3.5157-3.5157zm2.8434 3.5183c0 1.5695-1.274 2.8435-2.8434 2.8435-1.5696 0-2.8435-1.274-2.8435-2.8435 0-1.5695 1.274-2.8434 2.8435-2.8434 1.5695 0 2.8434 1.2713 2.8434 2.8434zm-3.3352-.2668h.463c.5415 0 .803-.1648.803-.552 0-.4054-.2798-.5806-.8501-.5806h-.416z" />

<path fill="#f5d832"
d="
M33.9252 146.0824s-.3732 3.5193 3.5204 3.5193h8.3852v-2.6935h-7.7876c-.5235 0-.974-.454-.974-.8988 0-.5243.3764-.8255.974-.8255h7.3395v-1.8705h-7.489c-.4481 0-.8245-.374-.8245-.8244 0-.4505.3764-.8245.8244-.8245h7.9372v-2.6948h-11.9252v7.1127
M48.0747 138.9697v10.632h3.3715v-7.1127c0-.4505.3729-.8245.823-.8245h5.8388c.448 0 .8248.374.8248.8245v7.1127h3.3673v-7.1127s.4505-3.5193-3.3673-3.5193
M63.7988 141.6646h3.7426c.3743 0 .8248.3739.8248.8244v7.1127h3.591v-7.1127c0-.4505.3763-.8245.8244-.8245h3.7426v-2.6948h-12.72v2.6949
M78.0983 146.0824s-.526 3.5193 3.3697 3.5193h8.3852v-2.6935h-7.7876c-.526 0-.974-.454-.974-.8988 0-.5243.448-.8255.974-.8255h7.337v-1.8705h-7.337c-.526 0-.974-.374-.974-.8244 0-.4505.448-.8245.974-.8245h7.7876v-2.6948h-11.755v7.1127
M101.7552 143.389c0 .522-.223.8233-.6738.8233h-4.94c-.2233 0-.522-.3013-.522-.8234v-1.0491c0-.4505.2987-.8245.7468-.8245h4.7166c.4508 0 .6738.2223.6738.8245v1.0491m-.0737-4.4192h-9.5829v10.632h3.5193v-2.0232c0-.449.2988-.6703.7469-.6703h4.7166c.2237 0 .6738.374.6738.6703v2.0232h3.3676v-1.6447s.3013-1.5028-1.2714-2.5498c1.0481-.748 1.4235-1.868 1.4986-2.5453.074-.2988.074-.5221.074-.5221s0-3.3701-3.7425-3.3701
M106.5473 141.6646h3.743c.448 0 .8245.3739.8245.8244v7.1127h3.7401v-7.1127c0-.4505.3768-.8245.8273-.8245h3.7401v-2.6948h-12.875v2.6949
M130.2776 144.2123h-6.061v-1.8725c0-.3013.4483-.6752.6717-.6752h4.566c.5224 0 .8233.3739.8233.6752v1.8725m-.0751-5.2426h-5.914c-3.818 0-3.5168 3.5193-3.5168 3.5193v7.1127h3.4449v-2.6935h6.061v2.6935h3.4417v-7.1127s.4491-3.5193-3.5168-3.5193
M136.0434 138.9697h3.5927v10.6316h-3.5927Z
M152.739 138.9697h-10.8589v10.632h3.4435v-7.1127c0-.4505.3768-.8245.7507-.8245h5.8413c.447 0 .8234.374.8234.8245v7.1127h3.3662v-7.1127s.449-3.5193-3.3662-3.5193
M173.4262 138.9838h-15.0509v10.6299h3.1454v-7.1106c0-.448.374-.8234.8234-.8234h2.5432c.4512 0 .8276.3754.8276.8234v7.1106h3.5172v-7.1106c0-.448.3009-.8234.8234-.8234h2.6959c.2984 0 .6748.3754.6748.8234l.146 7.1106h3.3688v-7.1106s.449-3.5193-3.5148-3.5193
M179.0156 146.0824s-.3764 3.5193 3.4442 3.5193h8.4593v-2.6935h-7.862c-.4491 0-.8982-.454-.8982-.8988 0-.5243.301-.8255.8252-.8255h7.335v-1.8705h-7.335c-.5243 0-.8252-.374-.8252-.8244 0-.4505.301-.8245.8252-.8245h7.935v-2.6948h-11.9034v7.1127
M203.8717 138.9697h-10.8568v10.632h3.3715v-7.1127c0-.4505.3711-.8245.8234-.8245h5.8385c.447 0 .8234.374.8234.8245v7.1127h3.3686v-7.1127s.447-3.5193-3.3686-3.5193
M208.6613 138.9697v2.6948h3.7451c.4466 0 .8234.374.8234.8245v7.1127h3.745v-7.1127c0-.4505.2964-.8245.7455-.8245h3.7451v-2.6948h-12.804

M92.3974 158.1315h-4.8658c-.6001 0-1.0481-.2212-1.0481-.7433 0-.4537.448-.901.8985-.901h8.5347v-2.6935h-9.3592c-1.8714 0-3.3697 1.421-3.3697 3.07 0 2.3198 1.6478 3.2183 3.6685 3.2183h4.8659c.6 0 1.0481.2233 1.0481.7454 0 .4495-.448.899-.8985.899h-8.684v2.6955h9.5825c1.7223 0 3.296-1.2725 3.296-3.0699 0-2.1685-1.6482-3.2205-3.6689-3.2205
M110.1407 153.7938h-3.2205v3.9683c0 .4449-.448.821-.8209.821h-4.7942c-.448 0-.8234-.3761-.8234-.821v-3.9684h-3.4v3.8933s-.374 3.5899 3.5193 3.5899h1.1218v3.145h3.7444v-3.145h1.2714c3.8933 0 3.3697-3.5148 3.3697-3.5148v-3.9684
M120.921 158.1315h-5.018c-.5972 0-.9701-.2212-.9701-.7433 0-.4537.3729-.901.8209-.901h8.5347v-2.6935h-9.333c-1.7234 0-3.2184 1.421-3.2184 3.07 0 2.3198 1.495 3.2183 3.5172 3.2183h5.015c.525 0 1.0492.2233 1.0492.7454 0 .4495-.375.899-.8255.899h-8.756v2.6955h9.5815c1.5716 0 3.2195-1.2725 3.2195-3.0699 0-2.1685-1.7234-3.2205-3.5945-3.2205
M125.5624 156.4872h3.8167c.2963 0 .6728.3764.6728.8234v7.1113h3.7454l.1482-7.1113c0-.447.223-.8234.6748-.8234h3.7451v-2.6934h-12.803v2.6934
M139.786 160.905s-.5242 3.5169 3.369 3.5169h8.3842v-2.6956h-7.7844c-.5246 0-.9761-.3743-.9761-.8989 0-.522.4515-.7454.9761-.7454h7.335v-1.875h-7.335c-.5246 0-.9761-.4449-.9761-.8964 0-.447.4515-.8234.9761-.8234h7.7844v-2.6934h-11.7861v7.1112
M168.8345 153.7938h-15.0463v10.628h3.1429v-7.1112c0-.447.3739-.8234.8233-.8234h2.5453c.447 0 .821.3764.821.8234v7.1113h3.519v-7.1113c0-.447.299-.8234.8258-.8234h2.6938c.3009 0 .6752.3764.6752.8234l.1503 7.1113h3.369v-7.1113s.4466-3.5169-3.5193-3.5169
" />
</svg>
