<svg xmlns="http://www.w3.org/2000/svg" xmlns:xlink="http://www.w3.org/1999/xlink" height="128px" width="128px" version="1.1" viewBox="0 0 256 256">
  <rect x="0" y="0" width="100%" height="100%" fill="blue" />
  <path stroke="#000000" stroke-width="0px" fill="#aaaaaa"
    d="M18,8 l12,0 l0,6 l14 0 l0 -6 l168 0 l0 6 l14 0 l0 -6 l12 0
       l0 200 l-12 0 l0 40 l-196 0 l0 -40 l-12 0z"
  />
  <path stroke="#666666" stroke-width="2px" fill="transparent"
    d="M54,8 l42,0 l0,31, l-42,0z
       M120 200 l20 0 l-10 16z" />

<path fill="#fff"
d="M7.1 24.91274h-7.084218 l0-22.88046 h7.12902 l9.86168 15.9558-0-15.9558 h7.074 v22.88046 h-7.06352 l-9.91408-15.9558
M34.9 24.91274h-6.88012 v-15.21696l6.88012 0z
M69.4 24.91274 h-6.8906 l0-15.18552 h-3.74136 v-2.25844 l3.74398-0-0-3.08112h6.88536v3.0785h3.72564v2.26368h-3.72564z
M34.9 6.70374h-6.89584v-4.6767h6.89584z

M51.1253 9.0233c2.5688-.0732 7.7795 1.6088 7.743 7.6226-.0053 1.0673-.0027 8.2661-.0027 8.2661 H52.041v-9.9768c0-1.3237-1.2661-2.7964-3.139-2.7964-1.8704 0-3.262 1.4727-3.262 2.7964 0 .6487.0078 9.9768.0078 9.9768h-6.8195l-.0026-15.1902 6.8247-.0052s-.0078 1.2216 0 1.5983c1.3132-1.253 3.2044-2.2261 5.475-2.2915z
M79.6302 15.0215c-.0105-1.3315.0183-2.2209.4551-2.9795.5363-.9364 1.5225-1.3811 2.417-1.3864h-.003c.8947.0052 1.8809.45 2.4171 1.3864.4369.7612.4552 1.6506.4447 2.9821zm5.7078 4.5803s.005.068.005.9208c0 2.778-1.8285 3.3954-2.8435 3.3954-1.015 0-2.8748-.6174-2.8748-3.3954 0-.8318.005-3.1364.005-3.1364s12.9406.0052 12.9406-.0026c0-4.7111-4.549-8.614-10.1364-8.614-5.5875 0-10.1155 3.8192-10.1155 8.5303s4.528 8.5277 10.1155 8.5277c4.6353 0 8.5512-2.6447 9.7466-6.231z
M106.9527 9.0233c2.5688-.0732 7.7795 1.6088 7.743 7.6226-.005 1.0673-.003 8.2661-.003 8.2661h-6.8248v-9.9768c0-1.3237-1.2661-2.7964-3.139-2.7964-1.8704 0-3.262 1.4727-3.262 2.7964 0 .6487.008 9.9768.008 9.9768h-6.8195l.005-15.1902 6.8169-.0052s-.008 1.2216 0 1.5983c1.3131-1.253 3.207-2.2261 5.475-2.2915z
M129.5013 2.073h6.7803v22.8442h-6.7908s-.003-.7376-.003-.8789c-2.6289 1.6506-5.5953 1.648-7.905.5703-.62-.2878-4.6981-2.2444-4.6981-7.531 0-4.0102 3.7825-8.389 8.7343-7.9548 1.6297.1438 2.7885.7376 3.8872 1.355-.005-3.5157-.005-8.4048-.005-8.4048zm.0497 15.172v-2.7153c0-2.349-1.6218-2.948-2.689-2.948-1.0935 0-2.6944.599-2.6944 2.948 0 .7795.003 2.7074.003 2.7074s-.003 1.8939-.003 2.7022c0 2.3464 1.6009 2.9611 2.6917 2.9611 1.0699 0 2.6943-.6147 2.6943-2.9611 0-.9757-.003-2.6943-.003-2.6943z
M151.3175 17.2005s-.003 2.2967-.003 3.2175c0 2.4223-1.4309 3.4215-2.8068 3.4215-1.3786 0-2.8147-.9992-2.8147-3.4215 0-.9208.003-3.275.003-3.275s.005-2.247.005-3.1679c0-2.4118 1.4387-3.4032 2.8068-3.4032 1.3707 0 2.8068.9914 2.8068 3.4032 0 .9208-.003 2.6237.005 3.2332zm-2.7597-8.512c-5.5456 0-10.0397 3.8192-10.0397 8.5303s4.4967 8.5303 10.0397 8.5303c5.5456 0 10.0396-3.8192 10.0396-8.5303s-4.494-8.5303-10.0396-8.5303z
M159.6673 3.7733c1.1117 0 1.6636.3767 1.6636 1.1222 0 .5127-.3191.8999-.8501 1.0333l.871 1.7395h-1.0541l-.7455-1.5956h-.463v1.5956h-.9496v-3.895zm-.0863-1.5224c-1.941 0-3.5157 1.5748-3.5157 3.5157 0 1.941 1.5747 3.5157 3.5157 3.5157 1.941 0 3.5157-1.5747 3.5157-3.5157 0-1.941-1.5748-3.5157-3.5157-3.5157zm2.8434 3.5183c0 1.5695-1.274 2.8435-2.8434 2.8435-1.5696 0-2.8435-1.274-2.8435-2.8435 0-1.5695 1.274-2.8434 2.8435-2.8434 1.5695 0 2.8434 1.2713 2.8434 2.8434zm-3.3352-.2668h.463c.5415 0 .803-.1648.803-.552 0-.4054-.2798-.5806-.8501-.5806h-.416z" />
</svg>
