<svg xmlns="http://www.w3.org/2000/svg" xmlns:xlink="http://www.w3.org/1999/xlink" width="128px" height="128px" viewBox="0 0 256 256">
  <rect x="0" y="0" width="100%" height="100%" fill="#000" />
  <path id="disc" stroke="#fff" stroke-width="4px" fill="#333" d="M18,128 a110,110 0 1,0 220,0 a110,110 0 1,0 -220,0
    M116,128 a12,12 0 1, 1 24,0 a12,12 0 1, 1 -24,0z" />
  <path d="M171.403 169.778l-4.198 1.5c-3.603 1.035-6.804.749-8.785.072-1.982-.677-1.814-1.537.78-2.644l3.999-1.577-6.044-2.542-6.65-1.618c-4 1.636-7.154 3.532-7.154 6.046 0 3.524 6.86 6.109 14.077 7.28 6.73 1.092 14.66.72 20.466-.66l7.305-1.7-5.598-2.347zm21.618 15.523 12.506-4.453-5.883-2.516-6.737-1.662-12.941 4.655 7.795 1.89z" style="clip-rule:evenodd;display:inline;overflow:visible;opacity:1;fill:#f3c202;fill-opacity:1;fill-rule:evenodd;stroke:none;stroke-width:.130875px;image-rendering:optimizequality;shape-rendering:geometricprecision;text-rendering:geometricprecision;--darkreader-inline-fill:#fdd122;--darkreader-inline-stroke:none" transform="translate(-57.95 -73.855)"/>
  <path d="M228.782 172.446c3.497-1.303 7.76-3.697 6.999-6.887-.65-2.727-8.707-6.914-19.07-7.468-5.32-.285-10.737.074-17.367 1.873-2.009.545-6.323 1.995-6.323 1.995l5.905 2.115 7.95 2.068 6.168-2.17c1.77-.623 3.925-.757 6.233-.574 2.308.183 4.664 1.753 1.592 3.085l-5.37 2.061 6.326 2.302zm-49.346-19.669-8.106 2.612 5.374 2.695 7.673 1.463 8.27-2.906z" style="clip-rule:evenodd;display:inline;overflow:visible;opacity:1;fill:#326db3;fill-opacity:1;fill-rule:evenodd;stroke:none;stroke-width:.130875px;image-rendering:optimizequality;shape-rendering:geometricprecision;text-rendering:geometricprecision;--darkreader-inline-fill:#6ca5d6;--darkreader-inline-stroke:none" transform="translate(-57.95 -73.855)"/>
  <path d="M205.527 180.848 l23.255-8.402-13.283-3.902-22.592 8.126zm-20.328-6.914-13.796-4.155 21.618-7.82 13.855 4.183zm-22-6.805 21.178-7.582-13.047-4.158-20.825 7.58z" style="clip-rule:evenodd;display:inline;overflow:visible;opacity:1;fill:#00aa9e;fill-opacity:1;fill-rule:evenodd;stroke:none;stroke-width:.130875px;image-rendering:optimizequality;shape-rendering:geometricprecision;text-rendering:geometricprecision;--darkreader-inline-fill:#55fff3;--darkreader-inline-stroke:none" transform="translate(-57.95 -73.855)"/>
  <path d="M193.021 185.3l-15.126-4.606v-66.855l12.255 3.107c15.62 4.661 25.669 7.957 25.669 24.107 0 12.606-6.806 17.247-16.843 12.799v-23.55c0-5.314-5.894-5.82-5.894-1.786z" style="clip-rule:evenodd;display:inline;overflow:visible;opacity:1;fill:#de0029;fill-opacity:1;fill-rule:evenodd;stroke:none;stroke-width:.130875px;image-rendering:optimizequality;shape-rendering:geometricprecision;text-rendering:geometricprecision;--darkreader-inline-fill:#ff3157;--darkreader-inline-stroke:none" transform="translate(-57.95 -73.855)"/>
</svg>
