<svg xmlns="http://www.w3.org/2000/svg" xmlns:xlink="http://www.w3.org/1999/xlink" width="128px" height="128px" viewBox="0 0 256 256">
  <rect x="0" y="0" width="100%" height="100%" fill="#000" />
  <path id="disc" stroke="#fff" stroke-width="4px" fill="#aaa" d="M18,128 a110,110 0 1,0 220,0 a110,110 0 1,0 -220,0
    M116,128 a12,12 0 1, 1 24,0 a12,12 0 1, 1 -24,0z" />
  <path d="M113.5 88l-4.198 1.5c-3.603 1.035-6.804.749-8.785.072-1.982-.677-1.814-1.537.78-2.644l3.999-1.577-6.044-2.542-6.65-1.618c-4 1.636-7.154 3.532-7.154 6.046 0 3.524 6.86 6.109 14.077 7.28 6.73 1.092 14.66.72 20.466-.66l7.305-1.7-5.598-2.347zm21.618 15.523 12.506-4.453-5.883-2.516-6.737-1.662-12.941 4.655 7.795 1.89z" fill="#f3c202" />
  <path d="M171 90.6c3.497-1.303 7.76-3.697 6.999-6.887-.65-2.727-8.707-6.914-19.07-7.468-5.32-.285-10.737.074-17.367 1.873-2.009.545-6.323 1.995-6.323 1.995l5.905 2.115 7.95 2.068 6.168-2.17c1.77-.623 3.925-.757 6.233-.574 2.308.183 4.664 1.753 1.592 3.085l-5.37 2.061 6.326 2.302zm-49.346-19.669-8.106 2.612 5.374 2.695 7.673 1.463 8.27-2.906z" fill="#326db3" />
  <path d="M147.6 99 l23.255-8.402-13.283-3.902-22.592 8.126zm-20.328-6.914-13.796-4.155 21.618-7.82 13.855 4.183zm-22-6.805 21.178-7.582-13.047-4.158-20.825 7.58z" fill="#00aa9e" />
  <path d="M135 103.8l-15.126-4.606v-66.855l12.255 3.107c15.62 4.661 25.669 7.957 25.669 24.107 0 12.606-6.806 17.247-16.843 12.799v-23.55c0-5.314-5.894-5.82-5.894-1.786z" fill="#de0029" />

  <path fill="#333"
    d="M65.352 185.658v-19.047h7.302c4.243 0 5.032 2.072 4.934 5.625-.099 4.441-1.48 6.02-4.243 6.02h-3.059v-1.875h2.763c.986 0 1.48-1.975 1.48-3.947 0-2.27-1.184-3.75-2.368-3.75h-3.947v16.975h-2.862v-.001z
       m14.702-19.047h2.96v19.047h-2.96v-19.047z
       m81.307 4.243h2.961v14.805h-2.961v-14.805z
       m0-4.44h2.961v2.762h-2.961v-2.762z
       m-73.61 6.414v-1.975h5.427c2.665 0 4.342 1.383 4.342 3.752v11.053h-7.203c-2.368 0-4.44-1.58-4.44-4.738 0-2.959 2.072-4.441 3.947-4.441h2.763v1.58h-1.974c-.987.1-1.48.986-1.579 2.764-.099 2.072 1.085 2.961 2.861 2.961h2.665v-8.686c0-1.283-.987-2.27-2.27-2.27h-4.539z
       m51.409 0v-1.975h5.428c2.664 0 4.34 1.383 4.34 3.752v11.053h-7.203c-2.367 0-4.439-1.58-4.439-4.738 0-2.959 2.072-4.441 3.947-4.441h2.762v1.58h-1.973c-.986.1-1.48.986-1.578 2.764-.1 2.072 1.084 2.961 2.861 2.961h2.664v-8.686c0-1.283-.986-2.27-2.27-2.27h-4.539z
       m-39.864-1.974h3.552l3.75 10.264 4.045-10.264h2.763l-9.275 21.811h-2.467l3.158-7.4-5.526-14.411z
       m25.655-2.27v-1.875h-5.427c-3.059.1-4.539 1.678-4.539 4.738-.197 3.947 1.283 5.822 4.342 5.822h1.579c2.269 0 2.17 2.072 2.17 3.059.099 1.184-.691 3.652-2.072 3.652h-5.23v1.678h6.019c2.862 0 4.342-1.875 4.243-5.725.099-3.455-.987-5.328-3.849-5.328h-1.875c-1.776 0-2.27-2.074-2.27-3.061-.099-.986.493-2.961 2.072-2.961h4.837v.001z
       m4.342-.197v15.199c0 .986 1.084 2.072 2.072 2.072h3.354v-1.777h-1.381c-.789 0-1.184-.789-1.184-1.381v-9.672h3.355v-1.975h-3.158v-2.467h-3.058v.001z
       m23.09 0v15.199c0 .986 1.184 2.072 2.17 2.072h3.355v-1.777h-1.381c-.789 0-1.283-.789-1.283-1.381v-9.672h3.453v-1.975h-3.158v-2.467h-3.156v.001z
       m21.609 2.369c5.525 0 6.611 3.355 6.611 7.5s-.494 7.5-6.611 7.5c-6.02 0-6.512-3.355-6.512-7.5s1.084-7.5 6.512-7.5z
       m.197 2.072c-2.664 0-3.256 2.467-3.256 5.428 0 3.059.295 5.527 3.256 5.527 2.861 0 3.158-2.469 3.158-5.527.001-2.961-.591-5.428-3.158-5.428z
       m9.77 12.83h2.861l.098-12.533h3.355c1.48 0 2.369.689 2.369 2.367v10.166h3.059v-11c0-2.764-1.777-4.146-5.033-4.146h-6.709v14.804z"/>
</svg>
