<svg xmlns="http://www.w3.org/2000/svg" width="128" height="128" viewBox="0 0 256 256">
  <rect x="0" y="0" width="100%" height="100%" fill="#000" />
  <path fill="#888" d="M16,60s0,-4 4,-4 h216s4,0 4,4 v134s0,4 -4,4 h-216s-4,0 -4,-4z"/>
  <path stroke="#666" stroke-width="2" d="M16,56 m0,24 h224 m-224,24h224 m-224,24h224 m-224,24h224 m-224,24h224" />

  <circle cx="36" cy="188" r="2" fill="#aaa" stroke="#444" stroke-width="2"/>
  <circle cx="222" cy="188" r="2" fill="#aaa" stroke="#444" stroke-width="2"/>

  <path fill="#999" d="M48,50s0,-4 4,-4h152s4,0 4,4v148h-160z"/>
  <path stroke="#555" stroke-width="2" d="M47,56v142 m162,0 v-142"/>

  <path fill="#ddd" stroke="#666" stroke-width="2" d="M56,46v64s0,8 8,8 h128s8,0 8,-8 v-64"/>
  <path fill="#888" stroke="#666" stroke-width="2" d="M56,198v-52s0,-8, 8,-8 h128s8,0 8,8 v52"/>

  <path stroke="#666" stroke-width="2" d="M106,138v36 m46,0v-36"/>
  <path fill="#fc0c18" transform="scale(0.2, 0.2) translate(314, 330)" d="
  M26,28c-0.3,1.8,-0.2,3.7,0.2,5.7c0.5,2,1.1,3.8,1.7,5.4a51,51,0,0,0,2.9,5.7l11.8,22.6a30,30,0,0,1,2.6,9.5c0.2,1.9,0.1,4,-0.3,6.3l-2.3,13.2a23.2,23.2,0,0,1,-6,10.9a16,16,0,0,1,-3.5,2.6a20.2,20.2,0,0,1,-10.2,2.5h-8.4c-2.1,0,-3.9,-0.2,-5.4,-0.7c-1.5,-0.5,-2.8,-1.1,-3.9,-1.8a9.2,9.2,0,0,1,-2.6,-2.6c-0.7,-1,-1.1,-1.9,-1.5,-2.9c-0.8,-2.3,-1,-5,-0.7,-8l4.3,-24.5h13.5l-4.3,24.5c-0.1,0.6,0,1.2,0.1,1.7c0.2,0.4,0.4,0.8,0.8,1.2c0.4,0.4,1,0.5,1.8,0.5h8.4a4,4,0,0,0,2,-0.5c0.5,-0.4,0.9,-0.7,1.2,-1.2a5,5,0,0,0,0.7,-1.7l2.1,-12.1c0.3,-1.8,0.2,-3.7,-0.2,-5.7c-0.5,-2,-1.1,-3.8,-1.7,-5.4a51,51,0,0,0,-2.9,-5.7l-11.6,-22.6a30,30,0,0,1,-2.6,-9.5c-0.2,-1.9,-0.1,-4,0.3,-6.3l2.3,-13.2a23.2,23.2,0,0,1,6,-10.9a18.4,18.4,0,0,1,8,-4.4c1.7,-0.5,3.6,-0.7,5.7,-0.7h8.4c2.1,0,3.9,0.2,5.4,0.7c1.5,0.5,2.8,1.1,3.9,1.8c1.1,0.8,1.9,1.6,2.6,2.6a20,20,0,0,1,1.5,2.9c0.8,2.3,1,5,0.7,8l-4.3,24.5h-13.5l4.3,-24.5c0.1,-0.6,0,-1.2,-0.1,-1.7c-0.2,-0.4,-0.4,-0.8,-0.8,-1.2c-0.4,-0.4,-1,-0.5,-1.8,-0.5h-8.4a4,4,0,0,0,-2,0.5c-0.5,0.4,-0.9,0.7,-1.2,1.2a5,5,0,0,0,-0.7,1.7l-2.3,12.1z
M68.6,-0.1h13.5l-17,96.5c-0.1,0.6,0,1.2,0.1,1.7c0.2,0.4,0.4,0.8,0.8,1.2c0.4,0.4,1,0.5,1.8,0.5h8.4a4,4,0,0,0,2,-0.5c0.5,-0.4,0.9,-0.7,1.2,-1.2a5,5,0,0,0,0.7,-1.7l17,-96.5h13.5l-17,96.5a23.2,23.2,0,0,1,-6,10.9a16,16,0,0,1,-3.5,2.6a20.2,20.2,0,0,1,-10.2,2.5h-8.4c-2.1,0,-3.9,-0.2,-5.4,-0.7c-1.5,-0.5,-2.8,-1.1,-3.9,-1.8a9.2,9.2,0,0,1,-2.6,-2.6c-0.7,-1,-1.1,-1.9,-1.5,-2.9c-0.8,-2.3,-1,-5,-0.7,-8l17.2,-96.5z
M119.8,-0.1h25.3c2.1,0,3.9,0.2,5.4,0.7c1.5,0.5,2.8,1.1,3.9,1.8c1.1,0.8,1.9,1.6,2.6,2.6a20,20,0,0,1,1.5,2.9c0.8,2.3,1,5,0.7,8l-5.6,31.5a23.2,23.2,0,0,1,-6,10.9a16,16,0,0,1,-3.5,2.6a20.2,20.2,0,0,1,-10.2,2.5h-11.8l2.2,-12.7h11.8a4,4,0,0,0,2,-0.5c0.5,-0.4,0.9,-0.7,1.2,-1.2a5,5,0,0,0,0.7,-1.7l5.6,-31.5c0.1,-0.6,0,-1.2,-0.1,-1.7c-0.2,-0.4,-0.4,-0.8,-0.8,-1.2c-0.4,-0.4,-1,-0.5,-1.8,-0.5h-11.8l-17.6,100h-13.5l19.8,-112.5z
M175.5,50.8h16.9l-2.2,12.7h-16.9l-6.4,36.3h16.9l-2.2,12.7h-30.4l19.8,-112.5h30.4l-2.2,12.7h-16.9l-6.8,38.1z

M210.4,-0.1h25.3c2.1,0,3.9,0.2,5.4,0.7c1.5,0.5,2.8,1.1,3.9,1.8c1.1,0.8,1.9,1.6,2.6,2.6a20,20,0,0,1,1.5,2.9c0.8,2.3,1,5,0.7,8l-5.6,31.5c-0.4,2.1,-1.2,3.9,-2.6,5.5c-1.4,1.6,-3,3,-4.8,4.2c1.4,1.2,2.5,2.6,3.3,4.2a9,9,0,0,1,0.7,5.5l-8,45.6h-13.5l8,-45.6c0.1,-0.6,0,-1.2,-0.1,-1.7c-0.2,-0.4,-0.4,-0.8,-0.8,-1.2c-0.4,-0.4,-1,-0.5,-1.8,-0.5h-11.8l-8.6,48.9h-13.5l19.7,-112.4z
M214.9,50.8h11.8a4,4,0,0,0,2,-0.5c0.5,-0.4,0.9,-0.7,1.2,-1.2a5,5,0,0,0,0.7,-1.7l5.6,-31.5c0.1,-0.6,0,-1.2,-0.1,-1.7c-0.2,-0.4,-0.4,-0.8,-0.8,-1.2c-0.4,-0.4,-1,-0.5,-1.8,-0.5h-11.9l-6.7,38.3z

M269.8,112.4l19.8,-112.5h13.5 l7,68 12,-68 h13.5l-19.8,112.5 h-13.5l-7,-68 -12,68z
M344.8,-0.1h13.5l-19.8,112.5h-13.5l19.8,-112.5z
M347.5,112.4l19.8,-112.5h13.5 l7,68 12,-68 h13.5l-19.8,112.5 h-13.5l-7,-68 -12,68z
M422.4,-0.1h33.2l-2.2,12.7h-9l-17.6,99.8h-15.2l17.6,-99.8h-9l2.2,-12.7z
M469.1,50.8h16.9l-2.2,12.7h-16.9l-6.4,36.3h16.9l-2.2,12.7h-30.4l19.8,-112.6h30.4l-2.2,12.7h-16.9l-6.8,38.2z

M484.2,112.4l19.8,-112.5h13.5 l7,68 12,-68 h13.5l-19.8,112.5 h-13.5l-7,-68 -12,68z

M559.1,-0.1h26.5c2.1,0,3.9,0.2,5.4,0.7c1.5,0.5,2.8,1.1,3.9,1.8c1.1,0.8,1.9,1.6,2.6,2.6a20,20,0,0,1,1.5,2.9c0.8,2.3,1,5,0.7,8l-14.3,80.5a23.2,23.2,0,0,1,-6,10.9a16,16,0,0,1,-3.5,2.6a20.2,20.2,0,0,1,-10.2,2.5h-26.4l19.8,-112.5z
M555,99.7h12.9a4,4,0,0,0,2,-0.5c0.5,-0.4,0.9,-0.7,1.2,-1.2a5,5,0,0,0,0.7,-1.7l14.2,-80.4c0.1,-0.6,0,-1.2,-0.1,-1.7c-0.2,-0.4,-0.4,-0.8,-0.8,-1.2c-0.4,-0.4,-1,-0.5,-1.8,-0.5h-12.9l-15.4,87.2z

M608.6,15.9a23.2,23.2,0,0,1,6,-10.9a18.4,18.4,0,0,1,8,-4.4c1.7,-0.5,3.6,-0.7,5.7,-0.7h8.4c2.1,0,3.9,0.2,5.4,0.7c1.5,0.5,2.8,1.1,3.9,1.8c1.1,0.8,1.9,1.6,2.6,2.6a20,20,0,0,1,1.5,2.9c0.8,2.3,1,5,0.7,8l-14.2,80.5a23.2,23.2,0,0,1,-6,10.9a16,16,0,0,1,-3.5,2.6a20.2,20.2,0,0,1,-10.2,2.5h-8.4c-2.1,0,-3.9,-0.2,-5.4,-0.7c-1.5,-0.5,-2.8,-1.1,-3.9,-1.8a9.2,9.2,0,0,1,-2.6,-2.6c-0.7,-1,-1.1,-1.9,-1.5,-2.9c-0.8,-2.3,-1,-5,-0.7,-8l14.2,-80.5z
M607.9,96.4c-0.1,0.6,0,1.2,0.1,1.7c0.2,0.4,0.4,0.8,0.8,1.2c0.4,0.4,1,0.5,1.8,0.5h8.4a4,4,0,0,0,2,-0.5c0.5,-0.4,0.9,-0.7,1.2,-1.2a5,5,0,0,0,0.7,-1.7l14.2,-80.4c0.1,-0.6,0,-1.2,-0.1,-1.7c-0.2,-0.4,-0.4,-0.8,-0.8,-1.2c-0.4,-0.4,-1,-0.5,-1.8,-0.5h-8.4a4,4,0,0,0,-2,0.5c-0.5,0.4,-0.9,0.7,-1.2,1.2a5,5,0,0,0,-0.7,1.7l-14.2,80.4z

  M208,146h7.2l-0.4,-17.6l-6.8,17.6zm-56.5,-17.9l-2.4,-0.2h-2.9l-1.9,10.7h2.9c2,0,3.5,-0.4,4.5,-1.1c1.2,-0.9,2,-2.4,2.3,-4.4c0.3,-1.9,0.1,-3.2,-0.6,-4c-0.5,-0.5,-1.1,-0.8,-1.9,-1zm-151.5,-9.4v45h651v-45h-651zm28.4,9.5h-10l-1.9,10.4h9.4l-0.7,3.8h-9.4l-1.9,11h10.6l-0.7,3.8h-15.1l5.8,-33h14.6l-0.7,4zm30.3,29.1h-6.7l-3.6,-22.9l-0.4,-3.7l-0.3,-2.9l-0.2,1.1l-0.2,0.9l-0.2,1.4l-0.4,2.1l-4.2,24h-4.1l5.8,-33h7.1l3.1,19.6l1.2,9.7l0.3,-3.1l0.5,-3.4l4,-22.8h4.1l-5.8,33zm38.8,-29.1h-7.7l-5.1,29.1h-4.5l5.1,-29.1h-7.6l0.7,-3.9h19.9l-0.8,3.9zm28.7,0h-10l-1.8,10.4h9.4l-0.7,3.8h-9.4l-1.9,11h10.6l-0.7,3.8h-15.2l5.8,-33h14.6l-0.7,4zm32.4,4.6c-0.5,2.7,-1.5,4.7,-3.2,5.9c-0.9,0.7,-2.2,1.2,-3.8,1.6c1,0.3,1.8,0.5,2.3,0.8c1.1,0.6,1.6,1.9,1.6,3.8c0,1.3,-0.2,3.5,-0.6,6.5c-0.2,2,-0.3,3.5,-0.1,4.4l0.3,1.4h-5.1a11,11,0,0,1,-0.2,-1.9l0.4,-4.4l0.4,-6.4c-0.1,-0.8,-0.5,-1.4,-1.1,-1.7a5,5,0,0,0,-1.7,-0.6l-2,-0.1h-2.2l-2.6,15h-4.5l5.8,-33h8.3c2.2,0,3.9,0.2,4.9,0.5c2.8,1.2,3.9,3.9,3.1,8.2zm35,-4.6h-7.7l-5.1,29.1h-4.5l5.1,-29.1h-7.6l0.7,-3.9h19.9l-0.8,3.9zm22.1,29.1l-0.2,-7.5h-8.8l-2.9,7.5h-4.4l13.4,-33h6l1.8,33h-4.9zm23.9,0h-4.5l5.8,-33h4.5l-5.8,33zm35.5,0h-6.7l-3.6,-22.9l-0.4,-3.7l-0.3,-2.9l-0.2,1.1l-0.2,0.9l-0.2,1.4l-0.4,2.1l-4.2,24h-4.1l5.8,-33h7.1l3.1,19.6l1.2,9.7l0.3,-3.1l0.5,-3.4l4,-22.8h4.1l-5.8,33zm41.9,0h-3.9l5,-28.3l-12,28.3h-4.5l-2,-28.3l-5,28.3h-3.9l5.8,-33h7.5l1.6,25.3l9.7,-25.3h7.5l-5.8,33zm35.4,-29.1h-10l-1.8,10.4h9.4l-0.7,3.8h-9.4l-1.9,11h10.5l-0.7,3.8h-15.2l5.8,-33h14.6l-0.6,4zm30.3,29.1h-6.7l-3.6,-22.9l-0.4,-3.7l-0.3,-2.9l-0.2,1.1l-0.2,0.9l-0.2,1.4l-0.4,2.1l-4.2,24h-4.1l5.8,-33h7.1l3.1,19.6l1.2,9.7l0.3,-3.1l0.5,-3.4l4,-22.8h4.1l-5.8,33zm38.8,-29.1h-7.7l-5.1,29.1h-4.5l5.1,-29.1h-7.6l0.7,-3.9h19.9l-0.8,3.9zm51.6,4.6l-0.2,1h-4.6l0.2,-0.9c0.2,-1.1,0.2,-1.9,0.2,-2.4c-0.3,-2,-1.5,-3,-3.8,-3c-1.5,0,-2.7,0.5,-3.6,1.4c-0.8,0.8,-1.3,1.8,-1.5,3.1c-0.2,1.2,-0.1,2.1,0.3,2.9c0.5,1.1,1.4,2,2.8,2.8l2.7,1.6c2.4,1.5,4,3,4.7,4.5c0.6,1.3,0.7,3,0.3,5.1c-0.5,3,-1.9,5.3,-4,6.9c-1.9,1.4,-4.2,2,-7.1,2c-3.3,0,-5.7,-0.8,-7,-2.4c-1.3,-1.5,-1.6,-3.9,-1.1,-7.1l0.4,-1.9h4.6l-0.3,1.3a9.7,9.7,0,0,0,0,4.2c0.5,1.5,1.8,2.2,3.9,2.2c1.9,0,3.3,-0.6,4.3,-1.7c0.8,-0.9,1.4,-2,1.6,-3.4c0.3,-1.6,0,-2.9,-0.9,-4c-0.7,-0.8,-1.9,-1.8,-3.8,-2.9a21.8,21.8,0,0,1,-4.4,-3.2c-1.6,-1.6,-2.2,-3.8,-1.6,-6.8a10,10,0,0,1,3.6,-6.4c1.8,-1.4,4.1,-2,6.8,-2c3.1,0,5.3,0.8,6.6,2.4c1.1,1.5,1.4,3.7,0.9,6.7zm23.2,10.8l-2.4,13.7h-4.5l2.4,-13.7l-4.1,-19.3h5.2l2.3,14.5l7.6,-14.5h4.5l-11,19.3zm41,-10.8l-0.2,1h-4.6l0.2,-0.9c0.2,-1.1,0.2,-1.9,0.2,-2.4c-0.3,-2,-1.5,-3,-3.8,-3c-1.5,0,-2.7,0.5,-3.6,1.4c-0.8,0.8,-1.3,1.8,-1.5,3.1c-0.2,1.2,-0.1,2.1,0.3,2.9c0.5,1.1,1.4,2,2.8,2.8l2.7,1.6c2.4,1.5,4,3,4.7,4.5c0.6,1.3,0.7,3,0.3,5.1c-0.5,3,-1.9,5.3,-4,6.9c-1.9,1.4,-4.2,2,-7.1,2c-3.3,0,-5.7,-0.8,-7,-2.4c-1.3,-1.5,-1.6,-3.9,-1.1,-7.1l0.4,-1.9h4.6l-0.3,1.3a9.7,9.7,0,0,0,0,4.2c0.5,1.5,1.8,2.2,3.9,2.2c1.9,0,3.3,-0.6,4.3,-1.7c0.8,-0.9,1.4,-2,1.6,-3.4c0.3,-1.6,0,-2.9,-0.9,-4c-0.7,-0.8,-1.9,-1.8,-3.8,-2.9a21.8,21.8,0,0,1,-4.4,-3.2c-1.6,-1.6,-2.2,-3.8,-1.6,-6.8a10,10,0,0,1,3.6,-6.4c1.8,-1.4,4.1,-2,6.8,-2c3.1,0,5.3,0.8,6.6,2.4c1.1,1.5,1.5,3.7,0.9,6.7zm34.5,-4.6h-7.7l-5.1,29.1h-4.5l5.1,-29.1h-7.6l0.7,-3.9h19.8l-0.7,3.9zm28.8,0h-10l-1.8,10.4h9.4l-0.7,3.8h-9.4l-1.9,11h10.6l-0.7,3.8h-15.2l5.8,-33h14.6l-0.7,4zm36.9,29.1h-3.9l5,-28.3l-12,28.3h-4.5l-2,-28.3l-5,28.3h-3.9l5.8,-33h7.5l1.6,25.3l9.7,-25.3h7.5l-5.8,33z"/>
</svg>
